<svg id="Layer_1" data-name="Layer 1" xmlns="http://www.w3.org/2000/svg" viewBox="0 0 53.39 51.03"><title>LinkedIn_Logo</title><g id="layer1"><g id="g3019"><path id="path28" d="M17.85,57.61V23.18H6.41V57.61ZM12.13,18.48c4,0,6.47-2.64,6.47-5.95s-2.48-5.95-6.4-5.95S5.73,9.15,5.73,12.53s2.48,5.95,6.32,5.95h.07Z" transform="translate(-5.73 -6.58)" style="fill:#434343"/><path id="path30" d="M24.18,57.61H35.63V38.38A7.84,7.84,0,0,1,36,35.59a6.26,6.26,0,0,1,5.87-4.19c4.14,0,5.8,3.16,5.8,7.79V57.61H59.12V37.87c0-10.58-5.65-15.5-13.18-15.5a11.4,11.4,0,0,0-10.39,5.8h.08v-5H24.18c.15,3.23,0,34.43,0,34.43Z" transform="translate(-5.73 -6.58)" style="fill:#434343"/></g></g></svg>